<?xml version="1.0" encoding="UTF-8"?>
<!DOCTYPE svg PUBLIC "-//W3C//DTD SVG 1.1//EN" "http://www.w3.org/Graphics/SVG/1.1/DTD/svg11.dtd">
<!-- Creator: CorelDRAW X7 -->
<svg xmlns="http://www.w3.org/2000/svg" xml:space="preserve" width="48.6234mm" height="83.6137mm" version="1.1" style="shape-rendering:geometricPrecision; text-rendering:geometricPrecision; image-rendering:optimizeQuality; fill-rule:evenodd; clip-rule:evenodd"
viewBox="0 0 2044 3514"
 xmlns:xlink="http://www.w3.org/1999/xlink">
 <defs>
  <style type="text/css">
   <![CDATA[
    .fil0 {fill:#6900BF;fill-rule:nonzero}
   ]]>
  </style>
 </defs>
 <g id="Capa_x0020_1">
  <metadata id="CorelCorpID_0Corel-Layer"/>
  <path class="fil0" d="M1341 2446c90,-47 160,-70 220,-70 16,0 32,2 47,5 89,20 170,101 247,249 19,36 33,74 43,113 -34,-5 -68,-1 -100,15 -95,45 -82,143 -73,214 7,52 10,87 -9,97 -20,9 -103,-66 -147,-105 -109,-98 -232,-208 -322,-134 -21,18 -33,41 -35,67 -5,74 74,159 144,233 2,3 5,5 7,8 -19,-12 -39,-22 -59,-25 -42,-41 -78,-87 -106,-140 -120,-230 -133,-382 143,-527zm-252 -147l0 1c-177,-257 -345,-560 -479,-859 -187,-419 -534,-1196 -485,-1313l1 -1c146,63 606,810 807,1136 182,295 341,627 447,934 9,27 19,55 28,85 -45,15 -87,35 -124,55l-3 1c-39,21 -78,44 -114,70 -15,-21 -31,-42 -47,-65l-31 -44zm756 1112c-58,-12 -219,-51 -375,-138 8,-3 20,-11 25,-29 13,-41 -29,-86 -94,-156 -55,-59 -131,-140 -128,-187 1,-9 5,-16 13,-24 50,-40 156,56 242,132 91,82 163,146 219,114 55,-33 47,-100 39,-159 -10,-78 -12,-126 39,-151 37,-18 78,-13 121,14 30,250 -69,509 -101,584zm5 95l49 8 20 -42c10,-21 243,-520 45,-899 -95,-182 -203,-284 -330,-312 -36,-8 -71,-9 -106,-6 -11,-34 -21,-67 -32,-98 -109,-315 -272,-656 -458,-959 -612,-992 -820,-1248 -967,-1190l-64 25 14 27c-80,130 63,504 477,1431 144,324 329,652 521,924l32 43 0 0c9,11 17,23 25,34 -94,113 -123,277 13,538 191,365 702,466 761,476z"/>
 </g>
</svg>
