<?xml version="1.0" encoding="UTF-8"?>
<!DOCTYPE svg PUBLIC "-//W3C//DTD SVG 1.1//EN" "http://www.w3.org/Graphics/SVG/1.1/DTD/svg11.dtd">
<!-- Creator: CorelDRAW X7 -->
<svg xmlns="http://www.w3.org/2000/svg" xml:space="preserve" width="68.5727mm" height="48.5376mm" version="1.1" style="shape-rendering:geometricPrecision; text-rendering:geometricPrecision; image-rendering:optimizeQuality; fill-rule:evenodd; clip-rule:evenodd"
viewBox="0 0 18287 12944"
 xmlns:xlink="http://www.w3.org/1999/xlink">
 <defs>
  <style type="text/css">
   <![CDATA[
    .fil0 {fill:#6900BF}
   ]]>
  </style>
 </defs>
 <g id="Capa_x0020_1">
  <metadata id="CorelCorpID_0Corel-Layer"/>
  <g id="_589329040">
   <path class="fil0" d="M17545 11566c0,170 -67,330 -186,449 -120,120 -280,187 -449,187l-15532 0c-169,0 -329,-67 -449,-186 -120,-121 -186,-281 -186,-450l0 -10188c0,-169 66,-329 185,-449 121,-120 281,-186 450,-186l15531 0c169,0 329,66 450,186 119,121 185,280 185,449l1 10188zm338 -11163c-260,-259 -606,-402 -973,-403l-15532 0c-367,1 -712,144 -975,404 -259,262 -402,607 -403,974l0 10189c1,366 144,712 404,974 261,260 606,403 974,403l15532 0c367,0 713,-143 974,-404 260,-260 403,-606 403,-974l0 -10188c0,-367 -143,-713 -402,-974 0,0 -2,-1 -2,-1z"/>
   <path class="fil0" d="M7115 9501l32 -6044 4815 3047 -4847 2997zm5746 -3308l-3494 -2211c0,0 -1,0 -1,0l-2388 -1511c-114,-72 -259,-77 -378,-12 -118,65 -192,190 -193,324l-39 7384c0,136 72,261 190,327 57,31 119,47 182,47 68,0 135,-19 195,-56l5923 -3661c109,-69 175,-187 176,-315 0,-128 -64,-247 -173,-316z"/>
  </g>
 </g>
</svg>
