<?xml version="1.0" encoding="UTF-8"?>
<!DOCTYPE svg PUBLIC "-//W3C//DTD SVG 1.1//EN" "http://www.w3.org/Graphics/SVG/1.1/DTD/svg11.dtd">
<!-- Creator: CorelDRAW X7 -->
<svg xmlns="http://www.w3.org/2000/svg" xml:space="preserve" width="84.8728mm" height="59.0486mm" version="1.1" style="shape-rendering:geometricPrecision; text-rendering:geometricPrecision; image-rendering:optimizeQuality; fill-rule:evenodd; clip-rule:evenodd"
viewBox="0 0 2324 1617"
 xmlns:xlink="http://www.w3.org/1999/xlink">
 <defs>
  <style type="text/css">
   <![CDATA[
    .fil0 {fill:#6900BF}
   ]]>
  </style>
 </defs>
 <g id="Capa_x0020_1">
  <metadata id="CorelCorpID_0Corel-Layer"/>
  <g id="_725220248">
   <path class="fil0" d="M1746 1000l-1178 0 0 -770 1178 0 0 770zm38 -845l-1253 0c-21,0 -38,17 -38,37l0 845c0,21 17,38 38,38l1253 0c21,0 37,-17 37,-38l0 -845c0,-20 -16,-37 -37,-37z"/>
   <path class="fil0" d="M2249 1542l-2174 0 0 -27 2174 0 0 27zm-1907 -178l1631 0 153 76 -1932 0 148 -76zm28 -1289l1575 0 0 1214 -1575 0 0 -1214zm1953 1396c0,-1 0,-1 0,-2 -1,-2 -1,-3 -2,-4 0,-1 0,-2 0,-3 -1,-1 -2,-3 -2,-4 -1,-1 -1,-1 -1,-2 -2,-2 -3,-3 -5,-5 0,0 -1,-1 -1,-1 -1,-1 -3,-2 -4,-3 -1,-1 -2,-1 -2,-2 -1,0 -2,-1 -3,-1l-283 -140 0 -1267c0,-20 -17,-37 -38,-37l-1649 0c-21,0 -38,17 -38,37l0 1267 -275 140c0,0 -1,1 -2,2 -1,0 -1,0 -2,1 -1,1 -3,2 -4,3 0,0 -1,1 -1,1 -2,2 -3,4 -5,5 0,1 0,1 0,1 -1,2 -2,4 -3,5 0,1 0,2 -1,3 0,1 -1,2 -1,4 0,1 0,2 0,2 -1,2 -1,3 -1,5 0,0 0,1 0,1l0 102c0,21 17,38 37,38l2249 0c21,0 38,-17 38,-38l0 -102c0,0 0,-1 0,-1 0,-2 0,-3 -1,-5z"/>
   <path class="fil0" d="M1173 1212c-20,0 -36,-16 -36,-36 0,-19 16,-35 36,-35 19,0 35,16 35,35 0,20 -16,36 -35,36zm0 -116c-45,0 -81,36 -81,80 0,45 36,81 81,81 44,0 80,-36 80,-81 0,-44 -36,-80 -80,-80z"/>
  </g>
 </g>
</svg>
