<?xml version="1.0" encoding="UTF-8"?>
<!DOCTYPE svg PUBLIC "-//W3C//DTD SVG 1.1//EN" "http://www.w3.org/Graphics/SVG/1.1/DTD/svg11.dtd">
<!-- Creator: CorelDRAW X7 -->
<svg xmlns="http://www.w3.org/2000/svg" xml:space="preserve" width="85.8637mm" height="79.5029mm" version="1.1" style="shape-rendering:geometricPrecision; text-rendering:geometricPrecision; image-rendering:optimizeQuality; fill-rule:evenodd; clip-rule:evenodd"
viewBox="0 0 3976 3681"
 xmlns:xlink="http://www.w3.org/1999/xlink">
 <defs>
  <style type="text/css">
   <![CDATA[
    .fil0 {fill:#6900BF;fill-rule:nonzero}
   ]]>
  </style>
 </defs>
 <g id="Capa_x0020_1">
  <metadata id="CorelCorpID_0Corel-Layer"/>
  <g id="_480836888">
   <path class="fil0" d="M3626 1199c-14,-32 -32,-61 -56,-86 -59,-63 -138,-98 -224,-99 -85,-1 -164,31 -224,91 -65,55 -103,132 -109,216 -6,86 23,168 80,231 24,25 51,47 81,63l-206 188 -208 -223c40,-13 78,-35 110,-64 85,-78 120,-197 91,-309 -30,-117 -126,-205 -256,-236 -20,-4 -40,-5 -61,-3 -127,18 -226,89 -270,195l-202 -222 239 -223c11,-10 19,-21 25,-34 14,-26 17,-56 8,-85 -10,-30 -33,-53 -62,-64 -27,-10 -50,-26 -69,-47 -66,-73 -63,-184 7,-251 73,-64 186,-59 252,12 19,21 33,45 41,73 9,30 30,54 59,66 28,12 59,11 86,-1 13,-5 25,-12 35,-21l242 -221 205 219c-109,36 -188,128 -216,254 -4,20 -5,40 -2,61 20,132 100,234 214,274 110,38 231,13 316,-66 31,-30 56,-65 73,-104l205 225 -204 191zm83 -518c-3,-7 -7,-13 -12,-18l-4 -4c-26,-28 -65,-40 -102,-31 -38,10 -67,39 -77,77 -9,33 -27,63 -52,86 -49,46 -119,61 -183,39 -68,-24 -115,-86 -128,-170 0,-5 0,-10 1,-14 20,-90 76,-150 154,-164 38,-7 70,-35 82,-71 12,-36 3,-76 -23,-104l-256 -275c-15,-15 -33,-26 -54,-30 -5,-2 -10,-2 -16,-2 -25,1 -50,10 -69,27l-244 223c-14,-33 -34,-63 -58,-90 -115,-123 -310,-132 -437,-19 -123,118 -129,309 -14,435 24,27 53,49 85,65l-242 226c-6,5 -9,10 -12,14 -12,16 -19,34 -21,53 0,5 0,10 0,16 4,21 13,40 27,55l253 278c25,28 64,40 101,31 38,-9 68,-38 78,-76 20,-76 85,-128 176,-140 4,-1 9,-1 13,0 83,20 141,71 160,142 17,65 -4,134 -53,179 -26,23 -57,38 -90,44 -39,7 -71,34 -83,71 -13,36 -4,76 22,104l3 5c5,5 11,10 18,13l242 260c17,18 40,29 65,32 2,1 5,1 8,1 3,0 6,0 9,-1 11,-1 23,-5 34,-11 5,-3 13,-7 22,-15l265 -241c3,-3 6,-7 8,-10 20,-27 26,-61 16,-93 -9,-31 -32,-56 -62,-67 -27,-10 -50,-26 -69,-47 -33,-37 -50,-84 -47,-134 4,-50 27,-95 65,-127 2,-1 3,-2 5,-4 35,-36 82,-54 131,-54 50,0 96,21 130,57 20,21 33,45 41,73 9,31 32,55 62,67 31,12 66,9 94,-8 4,-3 7,-5 10,-8l262 -245c16,-14 26,-32 31,-53 1,-5 2,-11 2,-17 -1,-25 -11,-49 -28,-67l-239 -263z"/>
   <path class="fil0" d="M312 3142c-67,-1 -129,-36 -160,-95 -35,-65 -27,-142 21,-212 2,-4 5,-7 9,-9 69,-49 146,-58 211,-26 32,17 71,16 102,-4 32,-19 50,-53 50,-90l-1 -274 348 -2c62,0 119,-34 148,-89 30,-55 28,-122 -6,-175 -12,-18 -18,-39 -19,-61 0,-31 12,-60 34,-82 42,-42 107,-45 168,-6 21,33 48,91 12,148 -34,53 -36,120 -6,175 30,54 87,87 149,87l307 -1 1 242c-98,-35 -211,-17 -307,50 -16,12 -31,26 -42,43 -75,110 -86,240 -29,346 54,103 159,166 277,166 35,0 71,-7 105,-19l1 280c-2,3 -5,6 -7,10l-1128 6 -2 -335c0,-37 -19,-71 -51,-91 -32,-18 -70,-19 -102,-2 -26,13 -54,20 -83,20zm325 -1110c116,-1 221,-65 274,-168 56,-108 44,-237 -32,-347 -11,-16 -26,-31 -43,-42 -96,-66 -208,-83 -304,-48l-2 -306 336 -2c37,0 71,-19 90,-51 19,-32 20,-70 3,-102 -14,-26 -21,-54 -21,-83 0,-48 18,-94 53,-128 34,-35 79,-54 128,-54 0,0 0,0 0,0 43,0 85,15 127,43 3,2 6,5 9,9 49,69 58,146 25,211 -17,32 -15,71 4,102 19,31 53,50 91,50l335 -2 2 335c1,58 48,105 106,105 16,0 32,-4 47,-12 64,-32 140,-24 209,23 4,3 7,6 10,10 48,70 57,147 23,211 -31,60 -92,97 -160,98 -28,0 -55,-7 -80,-19 -39,-20 -90,-11 -121,20 -20,20 -31,47 -31,75l2 305c-6,6 -12,12 -17,19l0 1 0 0 0 0c-3,3 -5,6 -7,10l-321 2c-15,0 -28,-8 -35,-20 -7,-13 -6,-29 2,-42 56,-89 49,-200 -18,-297 -7,-10 -16,-19 -26,-26 -53,-36 -108,-54 -164,-54 -66,0 -128,26 -175,73 -46,47 -71,109 -71,175 0,46 14,92 39,131 8,13 9,29 2,42 -7,13 -21,21 -35,21l-354 2 -2 -287c32,11 66,17 102,17zm1468 206l-257 1 -2 -241c33,11 67,16 103,16 74,0 143,-27 198,-72 -62,95 -77,200 -42,296zm128 79c19,-31 21,-69 4,-102 -19,-37 -41,-114 23,-209 3,-4 6,-7 10,-9 41,-29 85,-44 128,-44 99,0 180,80 181,179 0,29 -6,56 -19,82 -16,32 -15,70 4,100 20,32 54,51 91,51l335 -2 2 307c-103,-46 -227,-32 -331,40 -16,12 -31,26 -43,43 -74,110 -85,240 -29,347 54,102 160,165 277,165 45,0 89,-10 129,-28l2 306 -287 2c11,-32 17,-67 16,-101 -1,-171 -140,-310 -311,-310 -69,0 -139,23 -203,67 -16,12 -31,27 -42,43 -67,98 -84,207 -49,305l-305 1 -2 -335c0,-58 -47,-105 -105,-105 -17,0 -33,4 -48,12 -26,13 -54,20 -84,20 -67,0 -128,-37 -160,-96 -34,-64 -26,-141 22,-211 2,-4 5,-7 9,-9 70,-49 147,-58 210,-26 40,21 91,13 123,-19 19,-20 30,-47 30,-75l-2 -336 335 -2c37,0 70,-19 89,-51zm-1813 1260c0,57 48,104 105,104 1,0 1,0 1,0l1215 -7c3,0 6,-1 9,-1 13,5 27,8 42,8l377 -2c4,0 8,0 13,-1 32,-7 59,-29 73,-58 15,-30 14,-64 -1,-93 -19,-37 -41,-114 23,-209 3,-3 6,-7 10,-9 42,-29 85,-44 128,-44 99,0 180,81 181,180 0,28 -6,55 -19,81 -15,29 -15,62 0,91 14,30 42,51 74,58 4,1 9,1 13,1l358 -2c29,0 55,-11 75,-31 20,-20 31,-47 30,-75l-2 -374c0,-59 -46,-105 -105,-105 -21,0 -41,6 -58,17 -29,19 -62,28 -98,29 -67,0 -128,-37 -159,-97 -34,-64 -26,-141 21,-211 3,-4 6,-7 10,-9 42,-30 85,-45 129,-45 34,0 67,10 95,28 41,26 99,20 132,-14 20,-20 30,-46 30,-74l-2 -376c0,-58 -48,-105 -106,-105l-321 2c11,-33 16,-67 16,-102 -1,-171 -140,-310 -311,-310 -69,0 -138,23 -201,66 10,-13 19,-27 26,-42 56,-107 44,-236 -32,-346 -11,-16 -26,-31 -43,-42 -96,-66 -208,-83 -305,-48l-2 -322c-1,-57 -48,-105 -106,-105l-323 2c36,-99 18,-209 -50,-307 -11,-16 -26,-31 -43,-42 -63,-43 -132,-65 -200,-65 0,0 0,0 0,0 -84,0 -162,32 -221,92 -59,59 -91,137 -91,221 1,36 7,71 19,105l-322 2c-28,0 -55,11 -74,31 -20,20 -31,47 -31,75l2 377c0,4 1,9 2,13 10,48 53,84 103,84 16,0 32,-4 47,-12 64,-32 139,-24 209,24 4,2 7,5 10,9 48,70 57,147 23,211 -31,60 -92,98 -160,98 -28,0 -55,-6 -81,-19 -14,-7 -30,-11 -45,-11 -50,0 -94,36 -103,86 -1,4 -2,8 -2,13l2 358c1,10 3,19 7,27 0,2 0,3 0,5l1 308c-99,-36 -209,-18 -307,50 -16,12 -31,27 -42,43 -75,111 -86,240 -29,347 55,102 161,166 277,165 36,0 71,-7 105,-19l2 323z"/>
  </g>
 </g>
</svg>
