<?xml version="1.0" encoding="UTF-8"?>
<!DOCTYPE svg PUBLIC "-//W3C//DTD SVG 1.1//EN" "http://www.w3.org/Graphics/SVG/1.1/DTD/svg11.dtd">
<!-- Creator: CorelDRAW X7 -->
<svg xmlns="http://www.w3.org/2000/svg" xml:space="preserve" width="68.5674mm" height="44.6246mm" version="1.1" style="shape-rendering:geometricPrecision; text-rendering:geometricPrecision; image-rendering:optimizeQuality; fill-rule:evenodd; clip-rule:evenodd"
viewBox="0 0 15112 9835"
 xmlns:xlink="http://www.w3.org/1999/xlink">
 <defs>
  <style type="text/css">
   <![CDATA[
    .fil0 {fill:#6900BF}
   ]]>
  </style>
 </defs>
 <g id="Capa_x0020_1">
  <metadata id="CorelCorpID_0Corel-Layer"/>
  <path class="fil0" d="M13665 5562c-622,521 -1564,728 -2729,603 17,-23 34,-46 50,-69 165,15 301,22 426,22 96,0 190,-3 282,-9 641,-43 1173,-238 1582,-580 391,-327 644,-772 746,-1306 34,-178 51,-365 51,-562 1,-1255 -1093,-1681 -1631,-1815 2,-46 4,-92 6,-139 244,37 576,110 908,253 758,327 1142,865 1142,1598 0,855 -288,1549 -833,2004zm-7437 2529c-2955,0 -5395,-2741 -5599,-6263 316,125 760,231 1352,323 1109,173 2581,268 4144,268 1562,0 3034,-95 4142,-268 739,-115 1254,-253 1567,-421 -158,3578 -2598,6361 -5606,6361zm5084 76c0,372 -1930,1055 -5083,1055 -3154,0 -5084,-683 -5084,-1054 0,-151 426,-466 1597,-724 1032,825 2237,1261 3486,1261 1246,0 2450,-436 3484,-1262 1173,258 1600,574 1600,724zm-5187 -7553c2904,0 4904,330 5403,596 -499,266 -2499,595 -5403,595 -2905,0 -4905,-329 -5405,-595 500,-267 2500,-596 5405,-596zm6260 1853c509,141 1075,464 1075,1194 0,598 -200,1081 -578,1397 -362,303 -871,449 -1514,445 528,-908 878,-1953 1017,-3036zm69 -1383l-1 -59 -265 0c-98,-239 -450,-528 -1921,-757 -1108,-173 -2580,-268 -4142,-268 -1563,0 -3035,95 -4144,268 -1486,232 -1832,526 -1925,769l-54 2 -2 328c0,2155 796,4181 2191,5582 -1102,297 -1660,707 -1660,1219 0,1319 3727,1667 5698,1667 1970,0 5697,-348 5697,-1667 0,-513 -559,-923 -1663,-1220 78,-78 150,-152 216,-225 388,61 757,92 1096,92 1028,0 1863,-262 2484,-781 689,-577 1053,-1433 1053,-2476 0,-1597 -1416,-2327 -2658,-2474z"/>
 </g>
</svg>
