<svg width="305" height="26" viewBox="0 0 305 26" fill="none" xmlns="http://www.w3.org/2000/svg">
<rect y="6" width="12" height="3" rx="1" fill="white"/>
<rect y="16" width="12" height="3" rx="1" fill="white"/>
<rect width="13.0432" height="3.11137" rx="1" transform="matrix(0.000215295 -1 -1 -0.000215295 12.1113 19.0439)" fill="white"/>
<rect y="6" width="3" height="13" rx="1" fill="white"/>
<path d="M24.4258 19.119C23.5984 19.119 22.8504 18.9773 22.1818 18.694C21.5244 18.4107 21.0031 18.0027 20.6178 17.47C20.2324 16.9373 20.0341 16.3083 20.0228 15.583H22.5728C22.6068 16.0703 22.7768 16.4557 23.0828 16.739C23.4001 17.0223 23.8308 17.164 24.3748 17.164C24.9301 17.164 25.3664 17.0337 25.6838 16.773C26.0011 16.501 26.1598 16.1497 26.1598 15.719C26.1598 15.3677 26.0521 15.0787 25.8368 14.852C25.6214 14.6253 25.3494 14.4497 25.0208 14.325C24.7034 14.189 24.2614 14.0417 23.6948 13.883C22.9241 13.6563 22.2951 13.4353 21.8078 13.22C21.3318 12.9933 20.9181 12.659 20.5668 12.217C20.2268 11.7637 20.0568 11.163 20.0568 10.415C20.0568 9.71233 20.2324 9.10033 20.5838 8.579C20.9351 8.05767 21.4281 7.661 22.0628 7.389C22.6974 7.10567 23.4228 6.964 24.2388 6.964C25.4628 6.964 26.4544 7.26433 27.2138 7.865C27.9844 8.45433 28.4094 9.28167 28.4888 10.347H25.8708C25.8481 9.939 25.6724 9.60467 25.3438 9.344C25.0264 9.072 24.6014 8.936 24.0688 8.936C23.6041 8.936 23.2301 9.055 22.9468 9.293C22.6748 9.531 22.5388 9.87667 22.5388 10.33C22.5388 10.6473 22.6408 10.9137 22.8448 11.129C23.0601 11.333 23.3208 11.503 23.6268 11.639C23.9441 11.7637 24.3861 11.911 24.9528 12.081C25.7234 12.3077 26.3524 12.5343 26.8398 12.761C27.3271 12.9877 27.7464 13.3277 28.0978 13.781C28.4491 14.2343 28.6248 14.8293 28.6248 15.566C28.6248 16.2007 28.4604 16.79 28.1318 17.334C27.8031 17.878 27.3214 18.3143 26.6868 18.643C26.0521 18.9603 25.2984 19.119 24.4258 19.119ZM33.0002 8.46C32.5808 8.46 32.2295 8.32967 31.9462 8.069C31.6742 7.797 31.5382 7.46267 31.5382 7.066C31.5382 6.66933 31.6742 6.34067 31.9462 6.08C32.2295 5.808 32.5808 5.672 33.0002 5.672C33.4195 5.672 33.7652 5.808 34.0372 6.08C34.3205 6.34067 34.4622 6.66933 34.4622 7.066C34.4622 7.46267 34.3205 7.797 34.0372 8.069C33.7652 8.32967 33.4195 8.46 33.0002 8.46ZM34.1732 9.582V19H31.7932V9.582H34.1732ZM49.3256 9.446C50.4816 9.446 51.4109 9.803 52.1136 10.517C52.8276 11.2197 53.1846 12.2057 53.1846 13.475V19H50.8046V13.798C50.8046 13.0613 50.6176 12.5003 50.2436 12.115C49.8696 11.7183 49.3596 11.52 48.7136 11.52C48.0676 11.52 47.5519 11.7183 47.1666 12.115C46.7926 12.5003 46.6056 13.0613 46.6056 13.798V19H44.2256V13.798C44.2256 13.0613 44.0386 12.5003 43.6646 12.115C43.2906 11.7183 42.7806 11.52 42.1346 11.52C41.4773 11.52 40.9559 11.7183 40.5706 12.115C40.1966 12.5003 40.0096 13.0613 40.0096 13.798V19H37.6296V9.582H40.0096V10.721C40.3156 10.3243 40.7066 10.0127 41.1826 9.786C41.6699 9.55933 42.2026 9.446 42.7806 9.446C43.5173 9.446 44.1746 9.60467 44.7526 9.922C45.3306 10.228 45.7783 10.67 46.0956 11.248C46.4016 10.704 46.8436 10.2677 47.4216 9.939C48.0109 9.61033 48.6456 9.446 49.3256 9.446ZM58.9281 10.942C59.2341 10.5113 59.6534 10.1543 60.1861 9.871C60.7301 9.57633 61.3477 9.429 62.0391 9.429C62.8437 9.429 63.5691 9.62733 64.2151 10.024C64.8724 10.4207 65.3881 10.9873 65.7621 11.724C66.1474 12.4493 66.3401 13.2937 66.3401 14.257C66.3401 15.2203 66.1474 16.076 65.7621 16.824C65.3881 17.5607 64.8724 18.133 64.2151 18.541C63.5691 18.949 62.8437 19.153 62.0391 19.153C61.3477 19.153 60.7357 19.0113 60.2031 18.728C59.6817 18.4447 59.2567 18.0877 58.9281 17.657V23.488H56.5481V9.582H58.9281V10.942ZM63.9091 14.257C63.9091 13.6903 63.7901 13.203 63.5521 12.795C63.3254 12.3757 63.0194 12.0583 62.6341 11.843C62.2601 11.6277 61.8521 11.52 61.4101 11.52C60.9794 11.52 60.5714 11.6333 60.1861 11.86C59.8121 12.0753 59.5061 12.3927 59.2681 12.812C59.0414 13.2313 58.9281 13.7243 58.9281 14.291C58.9281 14.8577 59.0414 15.3507 59.2681 15.77C59.5061 16.1893 59.8121 16.5123 60.1861 16.739C60.5714 16.9543 60.9794 17.062 61.4101 17.062C61.8521 17.062 62.2601 16.9487 62.6341 16.722C63.0194 16.4953 63.3254 16.1723 63.5521 15.753C63.7901 15.3337 63.9091 14.835 63.9091 14.257ZM71.5546 6.42V19H69.1746V6.42H71.5546ZM83.766 14.087C83.766 14.427 83.7433 14.733 83.698 15.005H76.813C76.8697 15.685 77.1077 16.2177 77.527 16.603C77.9463 16.9883 78.462 17.181 79.074 17.181C79.958 17.181 80.587 16.8013 80.961 16.042H83.528C83.256 16.9487 82.7347 17.6967 81.964 18.286C81.1933 18.864 80.247 19.153 79.125 19.153C78.2183 19.153 77.4023 18.9547 76.677 18.558C75.963 18.15 75.402 17.5777 74.994 16.841C74.5973 16.1043 74.399 15.2543 74.399 14.291C74.399 13.3163 74.5973 12.4607 74.994 11.724C75.3907 10.9873 75.946 10.4207 76.66 10.024C77.374 9.62733 78.1957 9.429 79.125 9.429C80.0203 9.429 80.8193 9.62167 81.522 10.007C82.236 10.3923 82.7857 10.942 83.171 11.656C83.5677 12.3587 83.766 13.169 83.766 14.087ZM81.301 13.407C81.2897 12.795 81.0687 12.3077 80.638 11.945C80.2073 11.571 79.6803 11.384 79.057 11.384C78.4677 11.384 77.969 11.5653 77.561 11.928C77.1643 12.2793 76.9207 12.7723 76.83 13.407H81.301ZM99.04 16.739H94.314L93.532 19H91.033L95.3 7.117H98.071L102.338 19H99.822L99.04 16.739ZM98.394 14.835L96.677 9.871L94.96 14.835H98.394ZM108.727 9.429C109.43 9.429 110.047 9.57067 110.58 9.854C111.113 10.126 111.532 10.483 111.838 10.925V9.582H114.235V19.068C114.235 19.9407 114.059 20.717 113.708 21.397C113.357 22.0883 112.83 22.6323 112.127 23.029C111.424 23.437 110.574 23.641 109.577 23.641C108.24 23.641 107.14 23.3293 106.279 22.706C105.429 22.0827 104.947 21.2327 104.834 20.156H107.197C107.322 20.5867 107.588 20.9267 107.996 21.176C108.415 21.4367 108.92 21.567 109.509 21.567C110.2 21.567 110.761 21.3573 111.192 20.938C111.623 20.53 111.838 19.9067 111.838 19.068V17.606C111.532 18.048 111.107 18.4163 110.563 18.711C110.03 19.0057 109.418 19.153 108.727 19.153C107.934 19.153 107.208 18.949 106.551 18.541C105.894 18.133 105.372 17.5607 104.987 16.824C104.613 16.076 104.426 15.2203 104.426 14.257C104.426 13.305 104.613 12.4607 104.987 11.724C105.372 10.9873 105.888 10.4207 106.534 10.024C107.191 9.62733 107.922 9.429 108.727 9.429ZM111.838 14.291C111.838 13.713 111.725 13.22 111.498 12.812C111.271 12.3927 110.965 12.0753 110.58 11.86C110.195 11.6333 109.781 11.52 109.339 11.52C108.897 11.52 108.489 11.6277 108.115 11.843C107.741 12.0583 107.435 12.3757 107.197 12.795C106.97 13.203 106.857 13.6903 106.857 14.257C106.857 14.8237 106.97 15.3223 107.197 15.753C107.435 16.1723 107.741 16.4953 108.115 16.722C108.5 16.9487 108.908 17.062 109.339 17.062C109.781 17.062 110.195 16.9543 110.58 16.739C110.965 16.5123 111.271 16.195 111.498 15.787C111.725 15.3677 111.838 14.869 111.838 14.291ZM126.419 14.087C126.419 14.427 126.397 14.733 126.351 15.005H119.466C119.523 15.685 119.761 16.2177 120.18 16.603C120.6 16.9883 121.115 17.181 121.727 17.181C122.611 17.181 123.24 16.8013 123.614 16.042H126.181C125.909 16.9487 125.388 17.6967 124.617 18.286C123.847 18.864 122.9 19.153 121.778 19.153C120.872 19.153 120.056 18.9547 119.33 18.558C118.616 18.15 118.055 17.5777 117.647 16.841C117.251 16.1043 117.052 15.2543 117.052 14.291C117.052 13.3163 117.251 12.4607 117.647 11.724C118.044 10.9873 118.599 10.4207 119.313 10.024C120.027 9.62733 120.849 9.429 121.778 9.429C122.674 9.429 123.473 9.62167 124.175 10.007C124.889 10.3923 125.439 10.942 125.824 11.656C126.221 12.3587 126.419 13.169 126.419 14.087ZM123.954 13.407C123.943 12.795 123.722 12.3077 123.291 11.945C122.861 11.571 122.334 11.384 121.71 11.384C121.121 11.384 120.622 11.5653 120.214 11.928C119.818 12.2793 119.574 12.7723 119.483 13.407H123.954ZM134.481 9.446C135.603 9.446 136.509 9.803 137.201 10.517C137.892 11.2197 138.238 12.2057 138.238 13.475V19H135.858V13.798C135.858 13.05 135.671 12.4777 135.297 12.081C134.923 11.673 134.413 11.469 133.767 11.469C133.109 11.469 132.588 11.673 132.203 12.081C131.829 12.4777 131.642 13.05 131.642 13.798V19H129.262V9.582H131.642V10.755C131.959 10.347 132.361 10.0297 132.849 9.803C133.347 9.565 133.891 9.446 134.481 9.446ZM140.994 14.291C140.994 13.3163 141.192 12.4663 141.589 11.741C141.986 11.0043 142.535 10.4377 143.238 10.041C143.941 9.633 144.745 9.429 145.652 9.429C146.819 9.429 147.783 9.72367 148.542 10.313C149.313 10.891 149.828 11.707 150.089 12.761H147.522C147.386 12.353 147.154 12.0357 146.825 11.809C146.508 11.571 146.111 11.452 145.635 11.452C144.955 11.452 144.417 11.7013 144.02 12.2C143.623 12.6873 143.425 13.3843 143.425 14.291C143.425 15.1863 143.623 15.8833 144.02 16.382C144.417 16.8693 144.955 17.113 145.635 17.113C146.598 17.113 147.227 16.6823 147.522 15.821H150.089C149.828 16.841 149.313 17.6513 148.542 18.252C147.771 18.8527 146.808 19.153 145.652 19.153C144.745 19.153 143.941 18.9547 143.238 18.558C142.535 18.15 141.986 17.5833 141.589 16.858C141.192 16.1213 140.994 15.2657 140.994 14.291ZM154.144 8.46C153.725 8.46 153.374 8.32967 153.09 8.069C152.818 7.797 152.682 7.46267 152.682 7.066C152.682 6.66933 152.818 6.34067 153.09 6.08C153.374 5.808 153.725 5.672 154.144 5.672C154.564 5.672 154.909 5.808 155.181 6.08C155.465 6.34067 155.606 6.66933 155.606 7.066C155.606 7.46267 155.465 7.797 155.181 8.069C154.909 8.32967 154.564 8.46 154.144 8.46ZM155.317 9.582V19H152.937V9.582H155.317ZM158.162 14.257C158.162 13.305 158.349 12.4607 158.723 11.724C159.108 10.9873 159.624 10.4207 160.27 10.024C160.927 9.62733 161.658 9.429 162.463 9.429C163.166 9.429 163.778 9.57067 164.299 9.854C164.832 10.1373 165.257 10.4943 165.574 10.925V9.582H167.971V19H165.574V17.623C165.268 18.065 164.843 18.4333 164.299 18.728C163.766 19.0113 163.149 19.153 162.446 19.153C161.653 19.153 160.927 18.949 160.27 18.541C159.624 18.133 159.108 17.5607 158.723 16.824C158.349 16.076 158.162 15.2203 158.162 14.257ZM165.574 14.291C165.574 13.713 165.461 13.22 165.234 12.812C165.007 12.3927 164.701 12.0753 164.316 11.86C163.931 11.6333 163.517 11.52 163.075 11.52C162.633 11.52 162.225 11.6277 161.851 11.843C161.477 12.0583 161.171 12.3757 160.933 12.795C160.706 13.203 160.593 13.6903 160.593 14.257C160.593 14.8237 160.706 15.3223 160.933 15.753C161.171 16.1723 161.477 16.4953 161.851 16.722C162.236 16.9487 162.644 17.062 163.075 17.062C163.517 17.062 163.931 16.9543 164.316 16.739C164.701 16.5123 165.007 16.195 165.234 15.787C165.461 15.3677 165.574 14.869 165.574 14.291ZM175.944 14.257C175.944 13.305 176.131 12.4607 176.505 11.724C176.89 10.9873 177.412 10.4207 178.069 10.024C178.726 9.62733 179.457 9.429 180.262 9.429C180.874 9.429 181.458 9.565 182.013 9.837C182.568 10.0977 183.01 10.449 183.339 10.891V6.42H185.753V19H183.339V17.606C183.044 18.0707 182.631 18.4447 182.098 18.728C181.565 19.0113 180.948 19.153 180.245 19.153C179.452 19.153 178.726 18.949 178.069 18.541C177.412 18.133 176.89 17.5607 176.505 16.824C176.131 16.076 175.944 15.2203 175.944 14.257ZM183.356 14.291C183.356 13.713 183.243 13.22 183.016 12.812C182.789 12.3927 182.483 12.0753 182.098 11.86C181.713 11.6333 181.299 11.52 180.857 11.52C180.415 11.52 180.007 11.6277 179.633 11.843C179.259 12.0583 178.953 12.3757 178.715 12.795C178.488 13.203 178.375 13.6903 178.375 14.257C178.375 14.8237 178.488 15.3223 178.715 15.753C178.953 16.1723 179.259 16.4953 179.633 16.722C180.018 16.9487 180.426 17.062 180.857 17.062C181.299 17.062 181.713 16.9543 182.098 16.739C182.483 16.5123 182.789 16.195 183.016 15.787C183.243 15.3677 183.356 14.869 183.356 14.291ZM197.938 14.087C197.938 14.427 197.915 14.733 197.87 15.005H190.985C191.041 15.685 191.279 16.2177 191.699 16.603C192.118 16.9883 192.634 17.181 193.246 17.181C194.13 17.181 194.759 16.8013 195.133 16.042H197.7C197.428 16.9487 196.906 17.6967 196.136 18.286C195.365 18.864 194.419 19.153 193.297 19.153C192.39 19.153 191.574 18.9547 190.849 18.558C190.135 18.15 189.574 17.5777 189.166 16.841C188.769 16.1043 188.571 15.2543 188.571 14.291C188.571 13.3163 188.769 12.4607 189.166 11.724C189.562 10.9873 190.118 10.4207 190.832 10.024C191.546 9.62733 192.367 9.429 193.297 9.429C194.192 9.429 194.991 9.62167 195.694 10.007C196.408 10.3923 196.957 10.942 197.343 11.656C197.739 12.3587 197.938 13.169 197.938 14.087ZM195.473 13.407C195.461 12.795 195.24 12.3077 194.81 11.945C194.379 11.571 193.852 11.384 193.229 11.384C192.639 11.384 192.141 11.5653 191.733 11.928C191.336 12.2793 191.092 12.7723 191.002 13.407H195.473ZM217.632 9.446C218.788 9.446 219.717 9.803 220.42 10.517C221.134 11.2197 221.491 12.2057 221.491 13.475V19H219.111V13.798C219.111 13.0613 218.924 12.5003 218.55 12.115C218.176 11.7183 217.666 11.52 217.02 11.52C216.374 11.52 215.858 11.7183 215.473 12.115C215.099 12.5003 214.912 13.0613 214.912 13.798V19H212.532V13.798C212.532 13.0613 212.345 12.5003 211.971 12.115C211.597 11.7183 211.087 11.52 210.441 11.52C209.783 11.52 209.262 11.7183 208.877 12.115C208.503 12.5003 208.316 13.0613 208.316 13.798V19H205.936V9.582H208.316V10.721C208.622 10.3243 209.013 10.0127 209.489 9.786C209.976 9.55933 210.509 9.446 211.087 9.446C211.823 9.446 212.481 9.60467 213.059 9.922C213.637 10.228 214.084 10.67 214.402 11.248C214.708 10.704 215.15 10.2677 215.728 9.939C216.317 9.61033 216.952 9.446 217.632 9.446ZM224.242 14.257C224.242 13.305 224.429 12.4607 224.803 11.724C225.188 10.9873 225.704 10.4207 226.35 10.024C227.007 9.62733 227.738 9.429 228.543 9.429C229.246 9.429 229.858 9.57067 230.379 9.854C230.912 10.1373 231.337 10.4943 231.654 10.925V9.582H234.051V19H231.654V17.623C231.348 18.065 230.923 18.4333 230.379 18.728C229.846 19.0113 229.229 19.153 228.526 19.153C227.733 19.153 227.007 18.949 226.35 18.541C225.704 18.133 225.188 17.5607 224.803 16.824C224.429 16.076 224.242 15.2203 224.242 14.257ZM231.654 14.291C231.654 13.713 231.541 13.22 231.314 12.812C231.087 12.3927 230.781 12.0753 230.396 11.86C230.011 11.6333 229.597 11.52 229.155 11.52C228.713 11.52 228.305 11.6277 227.931 11.843C227.557 12.0583 227.251 12.3757 227.013 12.795C226.786 13.203 226.673 13.6903 226.673 14.257C226.673 14.8237 226.786 15.3223 227.013 15.753C227.251 16.1723 227.557 16.4953 227.931 16.722C228.316 16.9487 228.724 17.062 229.155 17.062C229.597 17.062 230.011 16.9543 230.396 16.739C230.781 16.5123 231.087 16.195 231.314 15.787C231.541 15.3677 231.654 14.869 231.654 14.291ZM239.861 11.044C240.167 10.5453 240.563 10.1543 241.051 9.871C241.549 9.58767 242.116 9.446 242.751 9.446V11.945H242.122C241.374 11.945 240.807 12.1207 240.422 12.472C240.048 12.8233 239.861 13.4353 239.861 14.308V19H237.481V9.582H239.861V11.044ZM251.035 19L247.839 14.988V19H245.459V6.42H247.839V13.577L251.001 9.582H254.095L249.947 14.308L254.129 19H251.035ZM265.246 14.087C265.246 14.427 265.224 14.733 265.178 15.005H258.293C258.35 15.685 258.588 16.2177 259.007 16.603C259.427 16.9883 259.942 17.181 260.554 17.181C261.438 17.181 262.067 16.8013 262.441 16.042H265.008C264.736 16.9487 264.215 17.6967 263.444 18.286C262.674 18.864 261.727 19.153 260.605 19.153C259.699 19.153 258.883 18.9547 258.157 18.558C257.443 18.15 256.882 17.5777 256.474 16.841C256.078 16.1043 255.879 15.2543 255.879 14.291C255.879 13.3163 256.078 12.4607 256.474 11.724C256.871 10.9873 257.426 10.4207 258.14 10.024C258.854 9.62733 259.676 9.429 260.605 9.429C261.501 9.429 262.3 9.62167 263.002 10.007C263.716 10.3923 264.266 10.942 264.651 11.656C265.048 12.3587 265.246 13.169 265.246 14.087ZM262.781 13.407C262.77 12.795 262.549 12.3077 262.118 11.945C261.688 11.571 261.161 11.384 260.537 11.384C259.948 11.384 259.449 11.5653 259.041 11.928C258.645 12.2793 258.401 12.7723 258.31 13.407H262.781ZM270.86 11.537V16.093C270.86 16.4103 270.933 16.6427 271.081 16.79C271.239 16.926 271.5 16.994 271.863 16.994H272.968V19H271.472C269.466 19 268.463 18.0253 268.463 16.076V11.537H267.341V9.582H268.463V7.253H270.86V9.582H272.968V11.537H270.86ZM276.991 8.46C276.572 8.46 276.221 8.32967 275.937 8.069C275.665 7.797 275.529 7.46267 275.529 7.066C275.529 6.66933 275.665 6.34067 275.937 6.08C276.221 5.808 276.572 5.672 276.991 5.672C277.411 5.672 277.756 5.808 278.028 6.08C278.312 6.34067 278.453 6.66933 278.453 7.066C278.453 7.46267 278.312 7.797 278.028 8.069C277.756 8.32967 277.411 8.46 276.991 8.46ZM278.164 9.582V19H275.784V9.582H278.164ZM286.84 9.446C287.962 9.446 288.868 9.803 289.56 10.517C290.251 11.2197 290.597 12.2057 290.597 13.475V19H288.217V13.798C288.217 13.05 288.03 12.4777 287.656 12.081C287.282 11.673 286.772 11.469 286.126 11.469C285.468 11.469 284.947 11.673 284.562 12.081C284.188 12.4777 284.001 13.05 284.001 13.798V19H281.621V9.582H284.001V10.755C284.318 10.347 284.72 10.0297 285.208 9.803C285.706 9.565 286.25 9.446 286.84 9.446ZM297.654 9.429C298.357 9.429 298.974 9.57067 299.507 9.854C300.04 10.126 300.459 10.483 300.765 10.925V9.582H303.162V19.068C303.162 19.9407 302.986 20.717 302.635 21.397C302.284 22.0883 301.757 22.6323 301.054 23.029C300.351 23.437 299.501 23.641 298.504 23.641C297.167 23.641 296.067 23.3293 295.206 22.706C294.356 22.0827 293.874 21.2327 293.761 20.156H296.124C296.249 20.5867 296.515 20.9267 296.923 21.176C297.342 21.4367 297.847 21.567 298.436 21.567C299.127 21.567 299.688 21.3573 300.119 20.938C300.55 20.53 300.765 19.9067 300.765 19.068V17.606C300.459 18.048 300.034 18.4163 299.49 18.711C298.957 19.0057 298.345 19.153 297.654 19.153C296.861 19.153 296.135 18.949 295.478 18.541C294.821 18.133 294.299 17.5607 293.914 16.824C293.54 16.076 293.353 15.2203 293.353 14.257C293.353 13.305 293.54 12.4607 293.914 11.724C294.299 10.9873 294.815 10.4207 295.461 10.024C296.118 9.62733 296.849 9.429 297.654 9.429ZM300.765 14.291C300.765 13.713 300.652 13.22 300.425 12.812C300.198 12.3927 299.892 12.0753 299.507 11.86C299.122 11.6333 298.708 11.52 298.266 11.52C297.824 11.52 297.416 11.6277 297.042 11.843C296.668 12.0583 296.362 12.3757 296.124 12.795C295.897 13.203 295.784 13.6903 295.784 14.257C295.784 14.8237 295.897 15.3223 296.124 15.753C296.362 16.1723 296.668 16.4953 297.042 16.722C297.427 16.9487 297.835 17.062 298.266 17.062C298.708 17.062 299.122 16.9543 299.507 16.739C299.892 16.5123 300.198 16.195 300.425 15.787C300.652 15.3677 300.765 14.869 300.765 14.291Z" fill="white"/>
</svg>
