<?xml version="1.0" encoding="UTF-8"?>
<!DOCTYPE svg PUBLIC "-//W3C//DTD SVG 1.1//EN" "http://www.w3.org/Graphics/SVG/1.1/DTD/svg11.dtd">
<!-- Creator: CorelDRAW X7 -->
<svg xmlns="http://www.w3.org/2000/svg" xml:space="preserve" width="216.039mm" height="50.8mm" version="1.1" style="shape-rendering:geometricPrecision; text-rendering:geometricPrecision; image-rendering:optimizeQuality; fill-rule:evenodd; clip-rule:evenodd"
viewBox="0 0 21604 5080"
 xmlns:xlink="http://www.w3.org/1999/xlink">
 <defs>
  <style type="text/css">
   <![CDATA[
    .fil1 {fill:#6900BF}
    .fil0 {fill:black;fill-rule:nonzero}
   ]]>
  </style>
 </defs>
 <g id="Capa_x0020_1">
  <metadata id="CorelCorpID_0Corel-Layer"/>
  <g id="_725162784">
   <g>
    <polygon class="fil0" points="21604,1270 21604,1513 20234,1513 20234,2407 21327,2407 21327,2651 20234,2651 20234,3566 21604,3566 21604,3810 19960,3810 19960,1270 "/>
    <polygon class="fil0" points="17353,3566 18582,3566 18582,3810 17079,3810 17079,1270 17353,1270 "/>
    <path class="fil0" d="M13938 1270l891 0c278,0 493,65 645,194 151,130 227,314 227,555 0,239 -76,424 -227,553 -152,130 -367,194 -645,194l-618 0 0 1044 -273 0 0 -2540zm273 1260l690 0c165,0 292,-43 382,-132 90,-88 135,-213 135,-375 0,-163 -45,-288 -135,-377 -90,-89 -217,-133 -382,-133l-690 0 0 1017z"/>
    <polygon class="fil0" points="12283,1270 12560,3810 12305,3810 12115,1991 11288,3810 11167,3810 10355,1996 10166,3810 9910,3810 10180,1270 10302,1270 11227,3344 12160,1270 "/>
    <polygon class="fil0" points="8259,3810 8259,1270 8532,1270 8532,3810 "/>
    <path class="fil0" d="M6038 3810c-191,0 -372,-43 -542,-129 -175,-88 -313,-209 -416,-362l0 -22 175 -151 21 0c97,130 211,231 346,304 135,73 268,110 400,110 177,0 319,-40 424,-120 104,-78 156,-179 156,-301 0,-71 -12,-132 -38,-182 -26,-49 -69,-94 -131,-133 -67,-40 -121,-69 -163,-88 -44,-20 -121,-47 -230,-83 -111,-35 -189,-63 -236,-82 -88,-35 -156,-65 -205,-91 -51,-25 -111,-64 -181,-114 -140,-100 -209,-247 -209,-439 0,-192 74,-350 222,-473 149,-122 341,-184 579,-184 348,0 617,126 808,377l0 22 -167 155 -22 0c-163,-204 -369,-305 -619,-305 -153,0 -278,35 -374,104 -99,73 -148,165 -148,276 0,112 39,196 116,252 74,58 193,117 359,179 33,12 84,30 154,55 82,29 137,49 164,58 35,13 86,33 151,61 62,28 111,54 147,77 101,68 173,139 219,214 55,93 82,204 82,333 0,206 -77,371 -231,494 -157,126 -361,188 -611,188z"/>
   </g>
   <g>
    <path class="fil1" d="M3919 580c-774,-773 -2029,-773 -2802,0 -774,774 -774,2029 0,2803l843 -843c-309,-308 -309,-808 0,-1117 308,-308 808,-308 1116,0l843 -843z"/>
    <path class="fil1" d="M0 4500c774,773 2029,773 2803,0 773,-774 773,-2029 0,-2803l-843 843c308,308 308,808 0,1117 -309,308 -809,308 -1117,0l-843 843z"/>
   </g>
  </g>
 </g>
</svg>
