<?xml version="1.0" encoding="UTF-8"?>
<!DOCTYPE svg PUBLIC "-//W3C//DTD SVG 1.1//EN" "http://www.w3.org/Graphics/SVG/1.1/DTD/svg11.dtd">
<!-- Creator: CorelDRAW X7 -->
<svg xmlns="http://www.w3.org/2000/svg" xml:space="preserve" width="251.363mm" height="325.822mm" version="1.1" style="shape-rendering:geometricPrecision; text-rendering:geometricPrecision; image-rendering:optimizeQuality; fill-rule:evenodd; clip-rule:evenodd"
viewBox="0 0 25136 32582"
 xmlns:xlink="http://www.w3.org/1999/xlink">
 <defs>
  <style type="text/css">
   <![CDATA[
    .fil0 {fill:#6900BF}
   ]]>
  </style>
 </defs>
 <g id="Capa_x0020_1">
  <metadata id="CorelCorpID_0Corel-Layer"/>
  <g id="_480854048">
   <path class="fil0" d="M25136 3723c-4963,-4964 -13011,-4964 -17975,0 -4964,4963 -4964,13011 0,17975l5407 -5407c-1978,-1978 -1978,-5184 0,-7161 1978,-1978 5184,-1978 7161,0l5407 -5407z"/>
   <path class="fil0" d="M0 28859c4964,4964 13011,4964 17975,0 4964,-4963 4964,-13011 0,-17975l-5407 5407c1978,1978 1978,5184 0,7161 -1977,1978 -5183,1978 -7161,0l-5407 5407z"/>
  </g>
 </g>
</svg>
